<?xml version="1.0"?>
<svg width="3182.9854" height="3665.4822" viewBox="0 0 3182.9853 3665.4821" version="1.1" xml:space="preserve" style="clip-rule:evenodd;fill-rule:evenodd;stroke-linecap:round;stroke-linejoin:round;stroke-miterlimit:1.5" id="svg1329" xmlns="http://www.w3.org/2000/svg" xmlns:svg="http://www.w3.org/2000/svg"><defs id="defs1329"></defs>
    <g id="jon-finance-man-grow-business" transform="matrix(4.0000001,0,0,4.0000001,-10323.775,-12004.715)" style="stroke-width:0.25"><path style="fill:#01C4CF;fill-opacity:1;stroke:none;stroke-width:0.75;stroke-linecap:round;stroke-linejoin:round" d="m 3257.2838,3575.9133 c 0,0 -18.2655,-18.1219 -19.2364,-21.394 -0.9708,-3.272 -1.8339,-27.6144 -1.7259,-29.8796 0.1079,-2.2653 12.0811,-28.9448 12.0811,-28.9448 l 17.3308,19.9917 c 0,0 4.2427,26.8952 4.1349,30.7785 -0.1078,3.8833 -7.1552,25.6368 -7.1552,25.6368 z" id="path53006"></path><path style="fill:#01C4CF;fill-opacity:1;stroke:none;stroke-width:0.75;stroke-linecap:round;stroke-linejoin:round" d="m 3288.5654,3569.0816 c -0.1439,-2.445 9.9237,-32.2168 9.9237,-32.2168 0,0 16.1083,-18.4815 18.4094,-20.567 2.3012,-2.0854 24.2344,-11.7577 24.2344,-11.7577 l 19.0206,-4.5305 0.827,14.4185 -7.6587,24.8817 -17.1149,21.6457 c 0,0 -29.2321,13.3038 -32.0726,13.0881 -2.8406,-0.2158 -15.6409,1.7978 -15.6409,1.7978 z" id="path53008"></path><path style="fill:#01C4CF;fill-opacity:1;stroke:none;stroke-width:0.75;stroke-linecap:round;stroke-linejoin:round" d="m 3287.6305,3605.0019 15.8205,-8.162 32.7918,-3.9912 22.2927,10.1397 13.2316,10.9666 -15.4968,9.5644 -31.5694,2.7686 -24.7735,-9.9958 z" id="path53010"></path><path style="fill:#01C4CF;fill-opacity:1;stroke:none;stroke-width:0.75;stroke-linecap:round;stroke-linejoin:round" d="m 3254.6231,3636.4996 3.5236,22.0772 c 0,0 13.807,21.0704 16.8632,22.6884 3.0563,1.618 33.6548,7.7305 33.6548,7.7305 l 8.8092,-1.7977 c 0,0 -2.7328,-14.3466 -4.2429,-17.5827 -1.5101,-3.236 -13.8789,-25.2053 -13.8789,-25.2053 0,0 -20.1713,-7.3351 -24.5938,-7.2632 -4.4225,0.072 -20.1352,-0.6472 -20.1352,-0.6472 z" id="path53012"></path><path style="fill:#01C4CF;fill-opacity:1;stroke:none;stroke-width:0.75;stroke-linecap:round;stroke-linejoin:round" d="m 3135.2496,3638.9806 c -1.2944,2.6608 -11.8655,23.1918 -11.8655,23.1918 l 1.0428,20.2434 11.1103,25.3851 7.6586,5.5373 16.4678,-24.7739 1.1506,-18.5175 c 0,0 -3.9552,-19.6321 -6.6878,-21.8973 -2.7326,-2.2653 -14.9577,-12.405 -14.9577,-12.405 z" id="path53014"></path><path style="fill:#01C4CF;fill-opacity:1;stroke:none;stroke-width:0.75;stroke-linecap:round;stroke-linejoin:round" d="m 3030.9057,3786.3294 c 0,0 13.7351,-19.0569 14.8498,-21.2861 1.1146,-2.2293 22.8319,-14.2387 22.8319,-14.2387 l 32.576,-4.0991 12.4048,2.7687 -4.9259,18.0141 -18.3735,15.4971 -37.2503,9.3487 -25.3848,0.3955 z" id="path53018"></path><path style="fill:#01C4CF;fill-opacity:1;stroke:none;stroke-width:0.75;stroke-linecap:round;stroke-linejoin:round" d="m 3144.1044,3783.3624 -15.425,14.0229 c 0,0 -6.1847,26.6436 -6.3643,29.1605 -0.1797,2.517 0.8269,20.603 0.8269,20.603 l 27.758,-20.8906 6.8676,-16.9354 -1.9776,-19.9917 z" id="path53020"></path><path id="path39354" style="fill:#19d9e3;fill-opacity:1;stroke:none;stroke-width:0.75;stroke-linecap:round;stroke-linejoin:round" d="m 3175.3203,3202.4082 -4.0683,17.3906 -19.2715,9.0528 -19.5782,17.7968 -8.5429,27.4082 2.6445,30.7637 19.832,25.375 31.4746,6.7617 c 0,0 -0.3053,31.3238 0.254,34.5782 0.5594,3.2544 -0.9141,36.4589 -0.9141,36.4589 l -21.8652,-5.4902 -20.7461,-14.8496 -6.5606,-2.7969 -9.0508,13.0684 13.627,13.375 24.0019,13.6777 19.3731,-0.9668 4.2207,10.6289 21.9668,-0.916 -0.3555,-18.6621 23.0332,-10.7285 15.7129,-26.5957 -2.6445,-35.1875 -8.9492,-15.8145 -30.1524,-12.5586 -1.0683,-76.1738 21.7128,12.6621 12.3555,11.4414 11.8477,-7.6289 -13.3223,-22.4746 -30.5098,-15.8652 -2.7461,-13.6797 z m 3.3047,39.748 -1.5254,73.2247 -25.3223,-14.1368 -6.6113,-23.289 6.8652,-21.4082 12.8126,-10.4239 z m 22.4746,94.4786 c 4.2714,0.2543 20.9512,12.4082 20.9512,12.4082 l 4.6269,18.459 -9.1543,16.6269 -18.457,16.4746 -0.2031,-38.4414 z"></path><path style="color:#000000;clip-rule:nonzero;fill:#5fd9e3;fill-opacity:1;fill-rule:nonzero;stroke-width:0.25;stroke-linecap:butt;stroke-linejoin:miter;-inkscape-stroke:none" d="m 3179.5547,3197.6152 c -2.5077,-0.2165 -5.0019,0.6324 -6.8574,2.3438 -1.8476,1.704 -2.8965,4.1163 -2.8965,6.6211 0,2.41 1e-4,5.1784 -0.01,7.2617 a 4.0004,4.0004 0 0 0 0,0.018 c 0,0.4221 -0.2137,0.7483 -0.5996,0.9179 -13.8664,6.1049 -26.8351,14.7293 -36.0449,27.1504 -9.2099,12.4211 -14.4826,28.623 -13.1446,49.0117 1.3686,20.8398 15.9414,33.8644 29.5235,41.2949 10.8935,5.9597 19.7025,8.1316 23.4883,8.9707 v 60.7422 c -17.7312,-0.418 -30.6314,-11.6412 -36.3321,-17.9023 l 0.023,0.025 c -1.6866,-1.8839 -4.097,-2.9839 -6.6426,-3.002 -2.5248,-0.018 -4.9489,1.0329 -6.6641,2.8731 a 4.0004,4.0004 0 0 0 -0.017,0.017 c -1.7148,1.8635 -3.7035,4.0103 -5.2559,5.7246 -2.8241,3.058 -3.1692,7.705 -0.8281,11.1446 a 4.0004,4.0004 0 0 0 0.014,0.019 c 16.6354,24.1358 43.2087,26.4541 54.6036,26.1992 a 4.0004,4.0004 0 0 0 0.057,0 c 0.2866,-0.011 0.5477,0.091 0.7441,0.2793 0.19,0.1822 0.2989,0.4313 0.2989,0.7129 v 1.2402 c 0,2.3927 0.9547,4.6731 2.6172,6.3535 a 4.0004,4.0004 0 0 0 0.029,0.031 c 1.6803,1.6625 3.9608,2.6152 6.3535,2.6152 h 15.8593 c 2.3927,0 4.6732,-0.9527 6.3536,-2.6152 a 4.0004,4.0004 0 0 0 0.031,-0.031 c 1.6625,-1.6804 2.6152,-3.9608 2.6152,-6.3535 0,-2.82 0,-6.2586 0.012,-8.6934 a 4.0004,4.0004 0 0 0 0,-0.016 c 0,-0.3742 0.2174,-0.725 0.5566,-0.8887 a 4.0004,4.0004 0 0 0 0.012,0 c 17.2412,-8.3852 27.6892,-20.3701 32.9278,-33.5429 5.2382,-13.1722 5.356,-27.3573 2.8515,-40.4551 v 0 c -2.9141,-15.2457 -14.6925,-24.1403 -25.1504,-29.0136 -7.5064,-3.498 -13.2793,-4.7794 -16.709,-5.418 v -65.918 c 10.7855,4.1673 17.4522,11.4285 20.7989,15.9961 1.4681,2.03 3.7161,3.3388 6.1933,3.6328 2.4522,0.3004 4.9441,-0.4202 6.8575,-2.0117 a 4.0004,4.0004 0 0 0 0.01,-0.01 c 1.783,-1.4941 3.8059,-3.189 5.4219,-4.5625 3.1547,-2.6409 4.1151,-7.1531 2.2871,-10.8515 -11.9956,-24.3285 -31.3674,-31.15 -40.1895,-32.877 a 4.0004,4.0004 0 0 0 -0.086,-0.016 c -0.4872,-0.084 -0.8083,-0.4592 -0.8125,-0.9629 a 4.0004,4.0004 0 0 0 0,-0.01 c -0.02,-1.8852 -0.041,-4.0953 -0.061,-6.0195 a 4.0004,4.0004 0 0 0 0,-0.01 c -0.054,-4.6107 -3.6623,-8.4931 -8.2637,-8.8691 -3.9732,-0.3295 -9.7459,-0.808 -13.9707,-1.1485 z m -0.6895,7.9707 a 4.0004,4.0004 0 0 0 0.023,0 c 4.2115,0.3393 10.0005,0.8184 13.9804,1.1484 a 4.0004,4.0004 0 0 0 0.01,0 c 0.5386,0.044 0.9096,0.441 0.916,0.9903 0.02,1.9114 0.039,4.1149 0.059,6.0058 0.036,4.3163 3.1965,8.0436 7.4492,8.7793 l -0.088,-0.016 c 7.218,1.413 23.7864,6.731 34.5508,28.5625 a 4.0004,4.0004 0 0 0 0,0.01 c 0.2068,0.4175 0.1076,0.8771 -0.25,1.1757 a 4.0004,4.0004 0 0 0 -0.025,0.021 c -1.5781,1.3414 -3.6005,3.0348 -5.3886,4.5332 -0.2231,0.1856 -0.4863,0.2598 -0.7696,0.2246 a 4.0004,4.0004 0 0 0 -0.027,0 c -0.2561,-0.03 -0.5058,-0.1755 -0.6543,-0.3809 a 4.0004,4.0004 0 0 0 -0.014,-0.019 c -4.5273,-6.1844 -14.1434,-16.4447 -30.2578,-20.6484 a 4.0004,4.0004 0 0 0 -5.0098,3.871 v 74.6797 a 4.0004,4.0004 0 0 0 3.4883,3.9668 c 0,0 8.6326,1.1383 17.8418,5.4297 9.2092,4.2915 18.3954,11.3526 20.6719,23.2656 2.2951,12.0017 2.0937,24.6265 -2.4277,35.9961 -4.5205,11.3671 -13.2704,21.6546 -28.9825,29.2989 0,8e-4 0,0 0,0 0,9e-4 0,0 -0.01,0 -3.0949,1.4984 -5.0703,4.646 -5.0703,8.0879 -0.01,2.4642 -0.012,5.8947 -0.012,8.709 0,0.2602 -0.1074,0.5097 -0.2949,0.707 -0.1969,0.1855 -0.4463,0.293 -0.7051,0.293 h -15.8593 c -0.2588,0 -0.5063,-0.1076 -0.7032,-0.293 -0.1874,-0.1974 -0.2968,-0.4468 -0.2968,-0.707 v -1.2402 c 0,-2.4385 -0.9917,-4.7886 -2.7618,-6.4864 -1.7635,-1.6916 -4.1408,-2.5894 -6.5742,-2.5 h 0.057 c -10.0621,0.225 -33.3188,-1.6966 -47.8242,-22.7227 -0.2576,-0.3801 -0.2236,-0.8733 0.092,-1.2148 a 4.0004,4.0004 0 0 0 0.027,-0.029 c 1.4993,-1.6561 3.4882,-3.8049 5.2207,-5.6875 v 0 c 0.2046,-0.2184 0.4597,-0.3263 0.754,-0.3242 0.2743,0 0.5448,0.1218 0.7382,0.3379 a 4.0004,4.0004 0 0 0 0.021,0.025 c 6.9191,7.5993 23.228,22.085 46.5078,20.5684 a 4.0004,4.0004 0 0 0 3.7403,-3.9922 v -67.9004 a 4.0004,4.0004 0 0 0 -3.2832,-3.9336 c 0,0 -12.0649,-2.2276 -24.3653,-8.957 -12.3004,-6.7295 -24.2394,-17.4206 -25.3808,-34.8008 -1.232,-18.7713 3.4677,-32.7732 11.5879,-43.7246 8.1198,-10.951 19.8388,-18.8668 32.8418,-24.5918 3.254,-1.4304 5.3789,-4.6844 5.3789,-8.2422 0.01,-2.1146 0.012,-4.8758 0.012,-7.2793 0,-0.2953 0.1079,-0.5443 0.3203,-0.7403 0.2044,-0.1885 0.4719,-0.2774 0.7441,-0.2539 z" id="path826"></path><path style="color:#000000;clip-rule:nonzero;fill:#5fd9e3;fill-opacity:1;fill-rule:nonzero;stroke-width:0.25;stroke-linecap:butt;stroke-linejoin:miter;stroke-dasharray:2, 4, 0, 0, 0, 0;-inkscape-stroke:none" d="m 3051.9824,3466.6602 a 4,4 0 0 0 -5.0722,2.5078 4,4 0 0 0 2.5078,5.0703 c 2.4731,0.8368 4.9267,1.7253 7.3554,2.668 a 4,4 0 0 0 5.1758,-2.2813 4,4 0 0 0 -2.2812,-5.1777 c -2.5433,-0.9871 -5.1068,-1.9145 -7.6856,-2.7871 z m 19.6016,9.1894 a 4,4 0 0 0 -2.3125,2.0059 4,4 0 0 0 1.7871,5.3672 c 2.3249,1.1633 4.6192,2.385 6.8809,3.664 a 4,4 0 0 0 5.4511,-1.5137 4,4 0 0 0 -1.5136,-5.4511 c -2.3808,-1.3464 -4.7938,-2.6303 -7.2383,-3.8535 a 4,4 0 0 0 -3.0547,-0.2188 z m 21.1562,12.1973 a 4,4 0 0 0 -2.5957,1.6211 4,4 0 0 0 0.9317,5.58 c 2.1111,1.5071 4.1809,3.0713 6.2051,4.6915 a 4,4 0 0 0 5.621,-0.6231 4,4 0 0 0 -0.623,-5.623 c -2.1396,-1.7126 -4.3251,-3.3654 -6.5547,-4.9571 a 4,4 0 0 0 -2.9844,-0.6894 z m 18.9551,15.4336 a 4,4 0 0 0 -2.8281,1.1718 4,4 0 0 0 0,5.6582 c 1.8343,1.8324 3.6188,3.7154 5.3496,5.6465 a 4,4 0 0 0 5.6484,0.3086 4,4 0 0 0 0.3086,-5.6484 c -1.8287,-2.0404 -3.7134,-4.03 -5.6523,-5.9668 a 4,4 0 0 0 -2.8301,-1.1699 z m 16.166,18.3203 a 4,4 0 0 0 -2.9785,0.7031 4,4 0 0 0 -0.9043,5.5859 c 1.5194,2.1058 2.9847,4.2519 4.3965,6.4356 a 4,4 0 0 0 5.5313,1.1875 4,4 0 0 0 1.1875,-5.5313 c -1.4838,-2.295 -3.0258,-4.5541 -4.627,-6.7734 a 4,4 0 0 0 -2.6055,-1.6074 z m 13.1055,20.5742 a 4,4 0 0 0 -3.0508,0.2637 4,4 0 0 0 -1.707,5.3926 c 1.2006,2.3123 2.3495,4.6548 3.4473,7.0214 a 4,4 0 0 0 5.3125,1.9453 4,4 0 0 0 1.9453,-5.3125 c -1.1464,-2.4714 -2.3485,-4.9188 -3.6055,-7.3398 a 4,4 0 0 0 -2.3418,-1.9707 z m 7.0586,22.0176 a 4,4 0 0 0 -2.3672,5.1367 c 0.9047,2.4534 1.761,4.9271 2.5742,7.416 a 4,4 0 0 0 5.0449,2.5586 4,4 0 0 0 2.5606,-5.0449 c -0.8432,-2.5806 -1.7333,-5.1467 -2.6738,-7.6973 a 4,4 0 0 0 -5.1387,-2.3691 z m 7.4687,22.8008 a 4,4 0 0 0 -2.8945,4.8593 c 0.645,2.5434 1.2499,5.0991 1.8164,7.6641 a 4,4 0 0 0 4.7676,3.043 4,4 0 0 0 3.0449,-4.7676 c -0.5837,-2.6429 -1.2089,-5.28 -1.875,-7.9063 a 4,4 0 0 0 -4.8594,-2.8925 z" id="path812"></path><path style="color:#000000;clip-rule:nonzero;fill:#5fd9e3;fill-opacity:1;fill-rule:nonzero;stroke-width:0.25;stroke-linecap:butt;stroke-linejoin:miter;stroke-dasharray:2, 4, 0, 0, 0, 0;-inkscape-stroke:none" d="m 3049.9375,3478.0625 a 4,4 0 0 0 -2.5527,1.6895 4,4 0 0 0 1.0781,5.5546 c 2.1471,1.4488 4.2513,2.9573 6.3066,4.5274 a 4,4 0 0 0 5.6075,-0.75 4,4 0 0 0 -0.752,-5.6074 c -2.1829,-1.6676 -4.4136,-3.2685 -6.6875,-4.8028 a 4,4 0 0 0 -3,-0.6113 z m 19.3105,15.0352 a 4,4 0 0 0 -2.8105,1.2148 4,4 0 0 0 0.086,5.6563 c 1.8555,1.7998 3.6563,3.6563 5.4004,5.5664 a 4,4 0 0 0 5.6504,0.2558 4,4 0 0 0 0.2578,-5.6504 c -1.852,-2.0282 -3.7657,-4.0006 -5.7382,-5.914 a 4,4 0 0 0 -2.8458,-1.1289 z m 16.3536,18.1914 a 4,4 0 0 0 -2.9766,0.7129 4,4 0 0 0 -0.8906,5.5859 c 1.5209,2.0974 2.9841,4.2398 4.3906,6.4219 a 4,4 0 0 0 5.5293,1.1953 4,4 0 0 0 1.1953,-5.5293 c -1.4829,-2.3007 -3.0287,-4.563 -4.6387,-6.7832 a 4,4 0 0 0 -2.6093,-1.6035 z m 13.0879,20.6113 a 4,4 0 0 0 -3.0528,0.2461 4,4 0 0 0 -1.7363,5.3848 c 1.1866,2.3171 2.3186,4.6633 3.3965,7.0351 a 4,4 0 0 0 5.2969,1.9863 4,4 0 0 0 1.9863,-5.2968 c -1.1287,-2.4836 -2.3143,-4.9413 -3.5586,-7.3711 a 4,4 0 0 0 -2.332,-1.9844 z m 6.9023,22.0723 a 4,4 0 0 0 -2.4102,5.1171 c 0.8846,2.4573 1.7212,4.9375 2.5157,7.4356 a 4,4 0 0 0 5.0234,2.5996 4,4 0 0 0 2.5996,-5.0234 c -0.8219,-2.5844 -1.6895,-5.1599 -2.6113,-7.7207 a 4,4 0 0 0 -5.1172,-2.4082 z m 7.2832,22.8593 a 4,4 0 0 0 -2.9238,4.8418 c 0.6291,2.5474 1.2171,5.1062 1.7695,7.6758 a 4,4 0 0 0 4.752,3.0703 4,4 0 0 0 3.0703,-4.75 c -0.5685,-2.6445 -1.1766,-5.2837 -1.8262,-7.914 a 4,4 0 0 0 -4.8418,-2.9239 z m 5.0645,23.4532 a 4,4 0 0 0 -3.3125,4.5859 c 0.4191,2.5998 0.8058,5.2053 1.1621,7.8164 a 4,4 0 0 0 4.5039,3.4238 4,4 0 0 0 3.4218,-4.5039 c -0.3647,-2.6732 -0.7597,-5.3442 -1.1894,-8.0097 a 4,4 0 0 0 -4.5859,-3.3125 z" id="path813"></path><path style="color:#000000;clip-rule:nonzero;fill:#5fd9e3;fill-opacity:1;fill-rule:nonzero;stroke-width:0.25;stroke-linecap:butt;stroke-linejoin:miter;stroke-dasharray:2, 4, 0, 0, 0, 0;-inkscape-stroke:none" d="m 3040.0137,3484.7402 a 4,4 0 0 0 -2.8028,1.2325 4,4 0 0 0 0.1231,5.6562 c 1.8548,1.7767 3.6433,3.6211 5.3613,5.5293 a 4,4 0 0 0 5.6485,0.2969 4,4 0 0 0 0.2968,-5.6504 c -1.8505,-2.0554 -3.7768,-4.0406 -5.7734,-5.9531 a 4,4 0 0 0 -2.8535,-1.1114 z m 16.2441,18.4317 a 4,4 0 0 0 -3.0019,0.6054 4,4 0 0 0 -1.0879,5.5508 c 1.4358,2.1374 2.7988,4.3255 4.0918,6.5586 a 4,4 0 0 0 5.4668,1.459 4,4 0 0 0 1.457,-5.4668 c -1.3794,-2.3823 -2.8368,-4.722 -4.375,-7.0117 a 4,4 0 0 0 -2.5508,-1.6953 z m 12.0977,21.3008 a 4,4 0 0 0 -3.0625,0.037 4,4 0 0 0 -2.0996,5.2539 c 1.0212,2.3813 1.9764,4.7942 2.8711,7.2343 a 4,4 0 0 0 5.1328,2.379 4,4 0 0 0 2.3789,-5.1329 c -0.9412,-2.5672 -1.9485,-5.1144 -3.0293,-7.6347 a 4,4 0 0 0 -2.1914,-2.1367 z m 5.2148,22.5468 a 4,4 0 0 0 -2.8476,4.8887 c 0.6653,2.5212 1.2772,5.0594 1.8359,7.6113 a 4,4 0 0 0 4.7617,3.0528 4,4 0 0 0 3.0527,-4.7637 c -0.5819,-2.6578 -1.2185,-5.3059 -1.914,-7.9414 a 4,4 0 0 0 -4.8887,-2.8477 z m 5.1738,23.4258 a 4,4 0 0 0 -3.3828,4.5352 c 0.378,2.598 0.7153,5.2005 1.0098,7.8066 a 4,4 0 0 0 4.4238,3.5254 4,4 0 0 0 3.5254,-4.4238 c -0.3044,-2.6935 -0.6531,-5.3809 -1.043,-8.0606 a 4,4 0 0 0 -4.5332,-3.3828 z m 2.7286,23.8399 a 4,4 0 0 0 -3.7559,4.2285 c 0.1554,2.6285 0.2773,5.2603 0.3672,7.8926 a 4,4 0 0 0 4.1348,3.8593 4,4 0 0 0 3.8593,-4.1328 c -0.092,-2.6979 -0.2176,-5.3963 -0.3769,-8.0918 a 4,4 0 0 0 -4.2285,-3.7558 z m 0.8457,23.9804 a 4,4 0 0 0 -4.0274,3.9727 c -0.019,2.6393 -0.064,5.2792 -0.1347,7.9199 a 4,4 0 0 0 3.8925,4.1055 4,4 0 0 0 4.1035,-3.8926 c 0.072,-2.6907 0.1198,-5.3823 0.1387,-8.0762 a 4,4 0 0 0 -3.9726,-4.0293 z m -0.6192,23.9903 a 4,4 0 0 0 -4.2285,3.7578 c -0.1558,2.6399 -0.3332,5.2807 -0.5293,7.9218 a 4,4 0 0 0 3.6934,4.2852 4,4 0 0 0 4.2851,-3.6934 c 0.1988,-2.6775 0.3787,-5.3588 0.5371,-8.0429 a 4,4 0 0 0 -3.7578,-4.2285 z" id="path814"></path><path style="color:#000000;clip-rule:nonzero;fill:#5fd9e3;fill-opacity:1;fill-rule:nonzero;stroke-width:0.25;stroke-linecap:butt;stroke-linejoin:miter;-inkscape-stroke:none" d="m 3175.5566,3236.1133 c -21.656,8.4439 -33.8707,25.7767 -34.289,42.9648 -0.4184,17.1882 11.527,33.6997 34.8027,39.3301 a 4.0004,4.0004 0 0 0 4.9395,-3.8887 v -74.6797 a 4.0004,4.0004 0 0 0 -5.4532,-3.7265 z m -2.5468,9.9805 v 63.0039 c -16.8834,-5.7382 -24.0449,-17.4734 -23.7442,-29.8262 0.2959,-12.1556 8.2285,-25.2206 23.7442,-33.1777 z" id="path824"></path><path style="color:#000000;clip-rule:nonzero;fill:#5fd9e3;fill-opacity:1;fill-rule:nonzero;stroke-width:0.25;stroke-linecap:butt;stroke-linejoin:miter;-inkscape-stroke:none" d="m 3199.9766,3334.2012 a 4.0004,4.0004 0 0 0 -4.8457,3.9082 v 61.6699 a 4.0004,4.0004 0 0 0 6.1015,3.4043 c 15.8591,-9.7967 26.419,-23.8298 27.6406,-37.7324 0.6109,-6.9513 -1.3544,-13.91 -6.2324,-19.4434 -4.8779,-5.5334 -12.4293,-9.5915 -22.664,-11.8066 z m 3.1543,9.1679 c 6.3053,2.0043 10.7368,4.7864 13.5078,7.9297 3.4436,3.9063 4.7135,8.3557 4.2656,13.4532 -0.7586,8.6334 -7.1833,18.9878 -17.7734,27.3105 z" id="path825"></path><path style="color:#000000;clip-rule:nonzero;fill:#5fd9e3;fill-opacity:1;fill-rule:nonzero;stroke-width:0.25;stroke-linecap:butt;stroke-linejoin:miter;-inkscape-stroke:none" d="m 3338.6543,3318.6191 c -42.0436,0.167 -70.4741,20.981 -82.582,40.0782 a 4,4 0 0 0 1.2363,5.5215 4,4 0 0 0 5.5195,-1.2364 c 10.9395,-17.2541 38.803,-37.9112 81.3203,-36.2051 1.601,4.8471 4.917,17.5384 2.125,34.0215 -3.5618,21.0281 -17.0235,47.603 -59.0507,69.9492 -34.4065,18.2937 -80.7696,10.0098 -80.7696,10.0098 a 4.0004,4.0004 0 0 0 -4.7324,3.9317 v 197.8007 a 4.0004,4.0004 0 0 0 6.7715,2.8828 l 71.8008,-69.0195 a 4,4 0 0 0 0.1113,-5.6562 4,4 0 0 0 -5.6563,-0.1114 l -65.0273,62.5079 v -183.8047 c 10.9326,1.6169 48.9257,5.7141 81.2578,-11.4766 43.7527,-23.2637 59.2404,-52.3984 63.1836,-75.6777 3.9432,-23.2794 -3.4785,-40.836 -3.4785,-40.836 a 4.0004,4.0004 0 0 0 -3.4395,-2.4316 c -2.9231,-0.179 -5.7869,-0.2592 -8.5898,-0.2481 z" id="path827"></path><path style="color:#000000;clip-rule:nonzero;fill:#5fd9e3;fill-opacity:1;fill-rule:nonzero;stroke-width:0.25;stroke-linecap:butt;stroke-linejoin:miter;-inkscape-stroke:none" d="m 3247.9551,3491.8223 a 4.0004,4.0004 0 0 0 -2.5996,1.8183 c -17.4731,28.3551 -14.9326,51.0753 -7.5235,66.0938 7.4092,15.0185 19.4414,22.6855 19.4414,22.6855 a 4.0004,4.0004 0 0 0 5.6875,-1.4902 c 15.1619,-28.4898 12.5642,-50.9552 5.7813,-65.8711 -6.7829,-14.9159 -17.6797,-22.5898 -17.6797,-22.5898 a 4.0004,4.0004 0 0 0 -3.1074,-0.6465 z m 1.9121,10.207 c 3.1874,3.0163 7.9147,8.2494 11.5937,16.3398 5.5545,12.2145 8.1176,30.0635 -3.4882,54.4082 -3.542,-3.0221 -8.9108,-8.3662 -12.9649,-16.5839 -6.0273,-12.2175 -8.6428,-29.8943 4.8594,-54.1641 z" id="path828"></path><path style="color:#000000;clip-rule:nonzero;fill:#5fd9e3;fill-opacity:1;fill-rule:nonzero;stroke-width:0.25;stroke-linecap:butt;stroke-linejoin:miter;-inkscape-stroke:none" d="m 3360.7871,3496.5313 c -38.9959,6.2475 -58.6016,25.6067 -67.8457,43.4316 -9.2441,17.8249 -8.4473,34.2402 -8.4473,34.2402 a 4.0004,4.0004 0 0 0 4.0723,3.8067 c 39.9321,-0.769 59.9758,-20.3842 69.0254,-39.6211 9.0496,-19.237 7.8203,-38.1563 7.8203,-38.1563 a 4.0004,4.0004 0 0 0 -4.625,-3.7011 z m -3.4531,8.8945 c -0.2328,6.1611 -1.3855,17.6651 -6.9805,29.5586 -7.7419,16.4572 -23.3798,32.7486 -57.6816,34.6972 0.3499,-5.2818 1.7005,-15.1009 7.3711,-26.0351 7.8695,-15.1743 23.795,-31.6028 57.291,-38.2207 z" id="path829"></path><path style="color:#000000;clip-rule:nonzero;fill:#5fd9e3;fill-opacity:1;fill-rule:nonzero;stroke-width:0.25;stroke-linecap:butt;stroke-linejoin:miter;-inkscape-stroke:none" d="m 3322.9531,3590.3047 c -2.3261,0.1211 -4.5845,0.3576 -6.7578,0.6855 -17.386,2.6237 -29.9043,10.7969 -29.9043,10.7969 a 4.0004,4.0004 0 0 0 -0.9121,5.8906 c 17.2571,21.0262 40.1236,24.1413 57.9453,21.8086 17.8218,-2.3326 31.3125,-9.8808 31.3125,-9.8808 a 4.0004,4.0004 0 0 0 1.0567,-6.1367 c -16.8618,-19.173 -36.4573,-24.0118 -52.7403,-23.1641 z m 6.6973,7.9121 c 11.5403,0.532 24.1463,4.8616 36.1426,16.625 -4.6577,2.1443 -12.255,5.24 -23.5078,6.7129 -14.9687,1.9592 -32.568,-0.1162 -47.2891,-15.3184 4.1898,-2.255 11.3345,-5.6652 22.3926,-7.334 3.8828,-0.5859 7.9978,-0.8821 12.2617,-0.6855 z" id="path830"></path><path style="color:#000000;clip-rule:nonzero;fill:#5fd9e3;fill-opacity:1;fill-rule:nonzero;stroke-width:0.25;stroke-linecap:butt;stroke-linejoin:miter;-inkscape-stroke:none" d="m 3264.416,3632.5488 c -5.4525,-0.01 -8.9961,0.6817 -8.9961,0.6817 a 4.0004,4.0004 0 0 0 -3.248,4.0527 c 0.9311,30.3931 17.4601,45.1601 33.3398,51.1934 15.8797,6.0332 31.293,4.2382 31.293,4.2382 a 4.0004,4.0004 0 0 0 3.5273,-4.4511 c -3.8423,-31.9727 -20.1949,-46.5813 -35.4668,-52.1914 -7.6359,-2.8051 -14.9967,-3.5143 -20.4492,-3.5235 z m 0.2344,8 c 4.6753,0.028 10.9717,0.6508 17.457,3.0332 12.2889,4.5144 25.1624,14.9929 29.5274,41.3086 -5.0742,0.058 -14.0071,-0.369 -23.2813,-3.8926 -13.1083,-4.9802 -25.8993,-15.3859 -27.8437,-40.2578 1.2107,-0.093 2.418,-0.2016 4.1406,-0.1914 z" id="path831"></path><path style="color:#000000;clip-rule:nonzero;fill:#5fd9e3;fill-opacity:1;fill-rule:nonzero;stroke-width:0.25;stroke-linecap:butt;stroke-linejoin:miter;-inkscape-stroke:none" d="m 3282.9355,3585.1367 a 4,4 0 0 0 -2.7617,1.3203 l -74.83,83.3614 a 4.0004,4.0004 0 0 0 -1.0235,2.7519 l 4.2402,210.9199 a 4,4 0 0 0 4.0801,3.92 4,4 0 0 0 3.918,-4.0801 l -4.207,-209.3418 73.7754,-82.1856 a 4,4 0 0 0 -0.3047,-5.6484 4,4 0 0 0 -2.8868,-1.0176 z" id="path832"></path><path style="color:#000000;clip-rule:nonzero;fill:#5fd9e3;fill-opacity:1;fill-rule:nonzero;stroke-width:0.25;stroke-linecap:butt;stroke-linejoin:miter;-inkscape-stroke:none" d="m 3114.4141,3726.4414 a 4,4 0 0 0 -2.7305,1.3848 4,4 0 0 0 0.4316,5.6406 l 71.627,61.4414 0.7285,116.7676 a 4,4 0 0 0 4.0234,3.9746 4,4 0 0 0 3.9766,-4.0254 l -0.7402,-118.5898 a 4.0004,4.0004 0 0 0 -1.3965,-3.0118 l -73.0098,-62.6289 a 4,4 0 0 0 -2.9101,-0.9531 z" id="path833"></path><path style="color:#000000;clip-rule:nonzero;fill:#5fd9e3;fill-opacity:1;fill-rule:nonzero;stroke-width:0.25;stroke-linecap:butt;stroke-linejoin:miter;-inkscape-stroke:none" d="m 3086.5215,3328.5762 c -24.5059,-0.6597 -42.9512,6.4609 -42.9512,6.4609 a 4.0004,4.0004 0 0 0 -2.457,4.6367 c 12.3433,53.1703 46.7655,80.9449 77.7754,94.9942 24.9874,11.3207 47.2276,13.9098 55.2304,14.5215 l 10.0801,308.5761 -55.5762,-42.0156 a 4,4 0 0 0 -5.6035,0.7773 4,4 0 0 0 0.7774,5.6036 l 62.2617,47.0703 a 4.0004,4.0004 0 0 0 6.4102,-3.3223 l -10.4708,-320.5586 a 4.0004,4.0004 0 0 0 -3.8906,-3.8691 c 0,0 -26.4554,-0.7221 -55.9179,-14.0703 -28.7568,-13.0285 -59.9467,-37.7663 -72.3497,-85.9903 6.0004,-1.8352 19.5803,-5.2709 36.4668,-4.8164 22.8617,0.6154 51.1011,8.2283 74.168,37.1211 a 4,4 0 0 0 5.6211,0.6309 4,4 0 0 0 0.6309,-5.6211 c -24.6431,-30.8671 -55.6993,-39.4693 -80.2051,-40.1289 z" id="path834"></path><path style="color:#000000;clip-rule:nonzero;fill:#5fd9e3;fill-opacity:1;fill-rule:nonzero;stroke-width:0.25;stroke-linecap:butt;stroke-linejoin:miter;-inkscape-stroke:none" d="m 3139.541,3632.9844 a 4.0004,4.0004 0 0 0 -4.9746,1.082 c -17.47,22.2003 -16.3569,43.551 -10.5449,58.6074 5.812,15.0565 16.0859,24.416 16.0859,24.416 a 4.0004,4.0004 0 0 0 5.8028,-0.4218 c 22.1956,-27.2036 21.3801,-48.892 14.0527,-62.9746 -7.3274,-14.0827 -20.4219,-20.709 -20.4219,-20.709 z m -0.7519,8.998 c 3.6486,2.4761 9.9548,7.4796 14.0781,15.4043 5.6835,10.9233 7.2928,26.9724 -10.3477,50.4258 -2.9292,-3.2133 -7.4437,-8.7206 -11.0332,-18.0195 -4.8222,-12.4923 -6.1747,-28.9006 7.3028,-47.8106 z" id="path835"></path><path style="color:#000000;clip-rule:nonzero;fill:#5fd9e3;fill-opacity:1;fill-rule:nonzero;stroke-width:0.25;stroke-linecap:butt;stroke-linejoin:miter;-inkscape-stroke:none" d="m 3091.4688,3742.3535 c -2.1057,10e-4 -4.3022,0.1092 -6.5704,0.3574 -18.1454,1.9857 -41.0119,13.1133 -59.5546,46.8731 a 4.0004,4.0004 0 0 0 2.6152,5.8262 c 0,0 17.8578,4.1285 38.0898,0.9179 20.2321,-3.2105 43.55,-14.4026 52.5,-43.9687 a 4.0004,4.0004 0 0 0 -2.0058,-4.7207 c 0,0 -10.3344,-5.292 -25.0742,-5.2852 z m -0.01,7.9903 c 8.2543,-0.027 14.5184,1.8009 18.1133,3.1152 -8.6522,23.7161 -27.1802,32.1763 -44.7774,34.9687 -12.2007,1.9361 -23.1019,0.9534 -29.4199,0.066 16.8397,-27.8176 35.5254,-36.2029 50.3945,-37.83 1.9697,-0.2156 3.8706,-0.3145 5.6895,-0.3203 z" id="path837"></path><path style="color:#000000;clip-rule:nonzero;fill:#5fd9e3;fill-opacity:1;fill-rule:nonzero;stroke-width:0.25;stroke-linecap:butt;stroke-linejoin:miter;-inkscape-stroke:none" d="m 3151.8008,3778.7051 c 0,0 -10.6474,-0.4284 -19.5938,8.3164 -8.9464,8.7448 -15.9521,26.0154 -12.08,59.1426 a 4.0004,4.0004 0 0 0 4.957,3.4121 c 0,0 13.2289,-3.2599 23.7265,-13.5879 10.4977,-10.328 17.8146,-28.5038 6.4532,-54.8711 a 4.0004,4.0004 0 0 0 -3.4629,-2.4121 z m -2.9063,8.2422 c 8.7559,22.3931 2.6539,35.1236 -5.6953,43.3379 -5.7866,5.6931 -11.5309,8.3055 -15.5527,9.8261 -2.39,-28.0185 3.8452,-41.2042 10.1523,-47.3691 4.3159,-4.2186 8.517,-5.409 11.0957,-5.7949 z" id="path838"></path></g></svg>